<mxfile host="app.diagrams.net" modified="2023-01-03T07:09:52.120Z" agent="5.0 (Windows NT 10.0; Win64; x64) AppleWebKit/537.36 (KHTML, like Gecko) Chrome/108.0.0.0 Safari/537.36" etag="USn9fndlbAUCR3qIlyDL" version="20.7.4" type="github">
  <diagram id="Z5-SzpJraQpNQHFIWIBT" name="第 1 页">
    <mxGraphModel dx="1221" dy="668" grid="0" gridSize="10" guides="1" tooltips="1" connect="1" arrows="1" fold="1" page="0" pageScale="1" pageWidth="827" pageHeight="1169" math="0" shadow="0">
      <root>
        <mxCell id="0" />
        <mxCell id="1" parent="0" />
        <mxCell id="1oaPmlqbgG1CVayk8qPI-10" style="edgeStyle=orthogonalEdgeStyle;rounded=1;orthogonalLoop=1;jettySize=auto;html=1;exitX=1;exitY=0.5;exitDx=0;exitDy=0;entryX=0;entryY=0.5;entryDx=0;entryDy=0;labelBackgroundColor=none;fontColor=default;strokeColor=#E07A5F;" parent="1" source="1oaPmlqbgG1CVayk8qPI-2" target="1oaPmlqbgG1CVayk8qPI-6" edge="1">
          <mxGeometry relative="1" as="geometry" />
        </mxCell>
        <mxCell id="1oaPmlqbgG1CVayk8qPI-11" style="edgeStyle=orthogonalEdgeStyle;rounded=1;orthogonalLoop=1;jettySize=auto;html=1;exitX=1;exitY=0.5;exitDx=0;exitDy=0;entryX=0;entryY=0.5;entryDx=0;entryDy=0;labelBackgroundColor=none;fontColor=default;strokeColor=#E07A5F;" parent="1" source="1oaPmlqbgG1CVayk8qPI-2" target="1oaPmlqbgG1CVayk8qPI-7" edge="1">
          <mxGeometry relative="1" as="geometry" />
        </mxCell>
        <mxCell id="1oaPmlqbgG1CVayk8qPI-2" value="坐标系种类" style="rounded=1;whiteSpace=wrap;html=1;labelBackgroundColor=none;fillColor=#F2CC8F;strokeColor=#E07A5F;fontColor=#393C56;" parent="1" vertex="1">
          <mxGeometry x="90" y="270" width="120" height="60" as="geometry" />
        </mxCell>
        <mxCell id="1oaPmlqbgG1CVayk8qPI-15" style="edgeStyle=orthogonalEdgeStyle;rounded=1;orthogonalLoop=1;jettySize=auto;html=1;exitX=0.5;exitY=1;exitDx=0;exitDy=0;labelBackgroundColor=none;fontColor=default;strokeColor=#E07A5F;" parent="1" source="1oaPmlqbgG1CVayk8qPI-3" target="1oaPmlqbgG1CVayk8qPI-4" edge="1">
          <mxGeometry relative="1" as="geometry" />
        </mxCell>
        <mxCell id="1oaPmlqbgG1CVayk8qPI-3" value="局部坐标系" style="rounded=1;whiteSpace=wrap;html=1;labelBackgroundColor=none;fillColor=#F2CC8F;strokeColor=#E07A5F;fontColor=#393C56;" parent="1" vertex="1">
          <mxGeometry x="500" y="70" width="120" height="60" as="geometry" />
        </mxCell>
        <mxCell id="1oaPmlqbgG1CVayk8qPI-17" style="edgeStyle=orthogonalEdgeStyle;rounded=1;orthogonalLoop=1;jettySize=auto;html=1;exitX=0.5;exitY=1;exitDx=0;exitDy=0;labelBackgroundColor=none;fontColor=default;strokeColor=#E07A5F;" parent="1" source="1oaPmlqbgG1CVayk8qPI-4" target="1oaPmlqbgG1CVayk8qPI-5" edge="1">
          <mxGeometry relative="1" as="geometry" />
        </mxCell>
        <mxCell id="1oaPmlqbgG1CVayk8qPI-4" value="世界坐标系" style="rounded=1;whiteSpace=wrap;html=1;labelBackgroundColor=none;fillColor=#F2CC8F;strokeColor=#E07A5F;fontColor=#393C56;" parent="1" vertex="1">
          <mxGeometry x="500" y="160" width="120" height="60" as="geometry" />
        </mxCell>
        <mxCell id="1oaPmlqbgG1CVayk8qPI-21" style="edgeStyle=orthogonalEdgeStyle;rounded=1;orthogonalLoop=1;jettySize=auto;html=1;exitX=0.5;exitY=1;exitDx=0;exitDy=0;entryX=0.5;entryY=0;entryDx=0;entryDy=0;labelBackgroundColor=none;fontColor=default;strokeColor=#E07A5F;" parent="1" source="1oaPmlqbgG1CVayk8qPI-5" target="1oaPmlqbgG1CVayk8qPI-20" edge="1">
          <mxGeometry relative="1" as="geometry" />
        </mxCell>
        <mxCell id="1oaPmlqbgG1CVayk8qPI-5" value="相机坐标系" style="rounded=1;whiteSpace=wrap;html=1;labelBackgroundColor=none;fillColor=#F2CC8F;strokeColor=#E07A5F;fontColor=#393C56;" parent="1" vertex="1">
          <mxGeometry x="500" y="250" width="120" height="60" as="geometry" />
        </mxCell>
        <mxCell id="1oaPmlqbgG1CVayk8qPI-12" style="edgeStyle=orthogonalEdgeStyle;rounded=1;orthogonalLoop=1;jettySize=auto;html=1;exitX=1;exitY=0.5;exitDx=0;exitDy=0;entryX=0;entryY=0.5;entryDx=0;entryDy=0;labelBackgroundColor=none;fontColor=default;strokeColor=#E07A5F;" parent="1" source="1oaPmlqbgG1CVayk8qPI-6" target="1oaPmlqbgG1CVayk8qPI-3" edge="1">
          <mxGeometry relative="1" as="geometry" />
        </mxCell>
        <mxCell id="1oaPmlqbgG1CVayk8qPI-13" style="edgeStyle=orthogonalEdgeStyle;rounded=1;orthogonalLoop=1;jettySize=auto;html=1;exitX=1;exitY=0.5;exitDx=0;exitDy=0;entryX=0;entryY=0.5;entryDx=0;entryDy=0;labelBackgroundColor=none;fontColor=default;strokeColor=#E07A5F;" parent="1" source="1oaPmlqbgG1CVayk8qPI-6" target="1oaPmlqbgG1CVayk8qPI-4" edge="1">
          <mxGeometry relative="1" as="geometry" />
        </mxCell>
        <mxCell id="1oaPmlqbgG1CVayk8qPI-14" style="edgeStyle=orthogonalEdgeStyle;rounded=1;orthogonalLoop=1;jettySize=auto;html=1;exitX=1;exitY=0.5;exitDx=0;exitDy=0;entryX=0;entryY=0.5;entryDx=0;entryDy=0;labelBackgroundColor=none;fontColor=default;strokeColor=#E07A5F;" parent="1" source="1oaPmlqbgG1CVayk8qPI-6" target="1oaPmlqbgG1CVayk8qPI-5" edge="1">
          <mxGeometry relative="1" as="geometry" />
        </mxCell>
        <mxCell id="1oaPmlqbgG1CVayk8qPI-28" style="edgeStyle=orthogonalEdgeStyle;orthogonalLoop=1;jettySize=auto;html=1;exitX=1;exitY=0.5;exitDx=0;exitDy=0;entryX=0;entryY=0.5;entryDx=0;entryDy=0;labelBackgroundColor=none;fontColor=default;strokeColor=#E07A5F;rounded=1;" parent="1" source="1oaPmlqbgG1CVayk8qPI-6" target="1oaPmlqbgG1CVayk8qPI-20" edge="1">
          <mxGeometry relative="1" as="geometry" />
        </mxCell>
        <mxCell id="1oaPmlqbgG1CVayk8qPI-6" value="左手坐标系" style="rounded=1;whiteSpace=wrap;html=1;labelBackgroundColor=none;fillColor=#F2CC8F;strokeColor=#E07A5F;fontColor=#393C56;" parent="1" vertex="1">
          <mxGeometry x="260" y="190" width="120" height="60" as="geometry" />
        </mxCell>
        <mxCell id="1oaPmlqbgG1CVayk8qPI-7" value="右手坐标系" style="rounded=1;whiteSpace=wrap;html=1;labelBackgroundColor=none;fillColor=#F2CC8F;strokeColor=#E07A5F;fontColor=#393C56;" parent="1" vertex="1">
          <mxGeometry x="260" y="350" width="120" height="60" as="geometry" />
        </mxCell>
        <mxCell id="1oaPmlqbgG1CVayk8qPI-16" value="模型矩阵" style="text;html=1;align=center;verticalAlign=middle;resizable=0;points=[];autosize=1;strokeColor=none;fillColor=none;labelBackgroundColor=none;rounded=1;fontColor=#393C56;" parent="1" vertex="1">
          <mxGeometry x="550" y="130" width="70" height="30" as="geometry" />
        </mxCell>
        <mxCell id="1oaPmlqbgG1CVayk8qPI-18" value="视图矩阵" style="text;html=1;align=center;verticalAlign=middle;resizable=0;points=[];autosize=1;strokeColor=none;fillColor=none;labelBackgroundColor=none;rounded=1;fontColor=#393C56;" parent="1" vertex="1">
          <mxGeometry x="560" y="220" width="70" height="30" as="geometry" />
        </mxCell>
        <mxCell id="1oaPmlqbgG1CVayk8qPI-33" style="edgeStyle=orthogonalEdgeStyle;rounded=1;orthogonalLoop=1;jettySize=auto;html=1;exitX=0.5;exitY=1;exitDx=0;exitDy=0;entryX=0.5;entryY=0;entryDx=0;entryDy=0;labelBackgroundColor=none;fontColor=default;strokeColor=#E07A5F;" parent="1" source="1oaPmlqbgG1CVayk8qPI-20" target="1oaPmlqbgG1CVayk8qPI-26" edge="1">
          <mxGeometry relative="1" as="geometry" />
        </mxCell>
        <mxCell id="1oaPmlqbgG1CVayk8qPI-20" value="裁剪空间坐标系" style="rounded=1;whiteSpace=wrap;html=1;labelBackgroundColor=none;fillColor=#F2CC8F;strokeColor=#E07A5F;fontColor=#393C56;" parent="1" vertex="1">
          <mxGeometry x="500" y="340" width="120" height="60" as="geometry" />
        </mxCell>
        <mxCell id="1oaPmlqbgG1CVayk8qPI-22" value="投影矩阵" style="text;html=1;align=center;verticalAlign=middle;resizable=0;points=[];autosize=1;strokeColor=none;fillColor=none;labelBackgroundColor=none;rounded=1;fontColor=#393C56;" parent="1" vertex="1">
          <mxGeometry x="560" y="310" width="70" height="30" as="geometry" />
        </mxCell>
        <mxCell id="1oaPmlqbgG1CVayk8qPI-26" value="屏幕坐标系" style="rounded=1;whiteSpace=wrap;html=1;labelBackgroundColor=none;fillColor=#F2CC8F;strokeColor=#E07A5F;fontColor=#393C56;" parent="1" vertex="1">
          <mxGeometry x="500" y="429" width="120" height="60" as="geometry" />
        </mxCell>
        <mxCell id="1oaPmlqbgG1CVayk8qPI-34" value="归一化坐标" style="text;html=1;align=center;verticalAlign=middle;resizable=0;points=[];autosize=1;strokeColor=none;fillColor=none;labelBackgroundColor=none;rounded=1;fontColor=#393C56;" parent="1" vertex="1">
          <mxGeometry x="560" y="403" width="78" height="26" as="geometry" />
        </mxCell>
        <mxCell id="1oaPmlqbgG1CVayk8qPI-41" value="canvas坐标系，左上角为原点，X轴向右为正方向，Y轴向下为正方向&lt;a style=&quot;border-color: var(--border-color);&quot; href=&quot;https://juejin.cn/post/7002975543406788644&quot;&gt;https://juejin.cn/post/7002975543406788644&lt;/a&gt;" style="shape=hexagon;perimeter=hexagonPerimeter2;whiteSpace=wrap;html=1;fixedSize=1;labelBackgroundColor=none;rounded=0;fillColor=#F2CC8F;strokeColor=#E07A5F;fontColor=#393C56;" parent="1" vertex="1">
          <mxGeometry x="659" y="413" width="354" height="80" as="geometry" />
        </mxCell>
        <mxCell id="Jg-vCYdYaEvKjRM4YeU7-1" value="作用：实现近大远小的效果" style="shape=hexagon;perimeter=hexagonPerimeter2;whiteSpace=wrap;html=1;fixedSize=1;labelBackgroundColor=none;fillColor=#F2CC8F;strokeColor=#E07A5F;fontColor=#393C56;rounded=0;" parent="1" vertex="1">
          <mxGeometry x="659" y="246" width="270" height="61" as="geometry" />
        </mxCell>
        <mxCell id="Jg-vCYdYaEvKjRM4YeU7-2" value="作用：所有物体统一的参考坐标系，表示物体的相对关系；&lt;br&gt;基于此能实现平移、旋转、缩放等效果" style="shape=hexagon;perimeter=hexagonPerimeter2;whiteSpace=wrap;html=1;fixedSize=1;labelBackgroundColor=none;fillColor=#F2CC8F;strokeColor=#E07A5F;fontColor=#393C56;rounded=0;" parent="1" vertex="1">
          <mxGeometry x="653" y="154" width="342" height="66.5" as="geometry" />
        </mxCell>
        <mxCell id="Jg-vCYdYaEvKjRM4YeU7-3" value="作用：" style="shape=hexagon;perimeter=hexagonPerimeter2;whiteSpace=wrap;html=1;fixedSize=1;labelBackgroundColor=none;fillColor=#F2CC8F;strokeColor=#E07A5F;fontColor=#393C56;rounded=0;" parent="1" vertex="1">
          <mxGeometry x="656" y="339" width="270" height="61" as="geometry" />
        </mxCell>
        <mxCell id="Jg-vCYdYaEvKjRM4YeU7-4" value="作用：" style="shape=hexagon;perimeter=hexagonPerimeter2;whiteSpace=wrap;html=1;fixedSize=1;labelBackgroundColor=none;fillColor=#F2CC8F;strokeColor=#E07A5F;fontColor=#393C56;rounded=0;" parent="1" vertex="1">
          <mxGeometry x="653" y="69" width="270" height="61" as="geometry" />
        </mxCell>
      </root>
    </mxGraphModel>
  </diagram>
</mxfile>
